<svg xmlns="http://www.w3.org/2000/svg" viewBox="0 0 100 100" preserveAspectRatio="xMidYMid meet">
  <rect width="100" height="100" rx="8" fill="#29b6f6" />
  <g fill="none" stroke-linecap="round" stroke-linejoin="round">
    <polyline
      points="50,100 50,84.7222 50,72.2222 50,62.5 50,55.5556 50,51.3889 50,50 48.6111,50 44.4444,50 37.5,50 27.7778,50 15.2778,50 0,50 15.2778,50 27.7778,50 37.5,50 44.4444,50 48.6111,50 50,50 50.78125,50 53.125,50 57.03125,50 62.5,50 69.53125,50 78.125,50 88.28125,50 100,50"
      stroke="#aaaaaa" stroke-width="12" opacity="1"
    />
    <polyline
      points="50,100 50,84.7222 50,72.2222 50,62.5 50,55.5556 50,51.3889 50,50 48.6111,50 44.4444,50 37.5,50 27.7778,50 15.2778,50 0,50 15.2778,50 27.7778,50 37.5,50 44.4444,50 48.6111,50 50,50 50.78125,50 53.125,50 57.03125,50 62.5,50 69.53125,50 78.125,50 88.28125,50 100,50"
      stroke="#fff" stroke-width="10" opacity="1"
    />
  </g>
  <rect x="43" y="96" width="14" height="8" rx="2" fill="#ffffff" stroke="#666" stroke-width="1" />
  <g>
    <rect x="42" y="42" width="16" height="16" rx="3" fill="#ffffff" stroke="#666" stroke-width="1.4" />
  </g>
  <rect x="-4" y="43" width="8" height="14" rx="2" fill="#ffffff" stroke="#666" stroke-width="1" />
  <rect x="96" y="43" width="8" height="14" rx="2" fill="#ffffff" stroke="#666" stroke-width="1" />
</svg>
